<svg width="308" height="317" viewBox="0 0 308 317" fill="none" xmlns="http://www.w3.org/2000/svg">
<path d="M222.845 268.578C221.631 268.088 220.314 267.804 218.919 267.804C217.524 267.804 216.207 268.088 214.993 268.578C213.779 269.094 212.669 269.816 211.765 270.745L211.687 270.797C211.17 271.313 210.68 271.906 210.292 272.551C210.086 272.886 209.879 273.247 209.698 273.634H193.401V259.497C190.895 260.658 188.287 261.535 185.627 262.077C185.162 262.18 184.723 262.258 184.258 262.335V278.175C184.258 279.439 184.774 280.574 185.601 281.399C186.427 282.225 187.564 282.741 188.829 282.741H209.853C210.008 283.05 210.189 283.36 210.396 283.67C210.757 284.211 211.17 284.727 211.635 285.192L211.713 285.269C212.643 286.198 213.779 286.972 215.045 287.488C216.259 287.978 217.576 288.262 218.971 288.262C220.314 288.262 221.631 288.004 222.819 287.513L222.896 287.488C224.162 286.972 225.273 286.198 226.228 285.269C227.158 284.34 227.933 283.205 228.449 281.941C228.94 280.729 229.224 279.413 229.224 278.02C229.224 276.653 228.94 275.337 228.449 274.099C227.933 272.835 227.158 271.7 226.228 270.771C225.247 269.868 224.11 269.094 222.845 268.578ZM148.331 171.837H129.218L126.48 180.815H109.279L129.812 126.33H148.253L168.709 180.815H151.069L148.331 171.837ZM144.766 160.022L138.8 140.442L132.808 160.022H144.766ZM173.461 126.305H190.379V180.789H173.461V126.305ZM160.573 70.453C157.784 72.4652 155.201 75.174 152.954 78.6825C152.851 78.863 152.696 79.0178 152.515 79.121C151.818 79.5596 150.888 79.3532 150.449 78.6825C148.202 75.174 145.619 72.4652 142.829 70.453C139.833 68.286 136.605 66.9188 133.273 66.248H133.221C129.967 65.5773 126.635 65.5773 123.432 66.1449C120.049 66.7382 116.769 67.9765 113.824 69.6791C110.906 71.3818 108.271 73.5745 106.076 76.1027C103.958 78.5535 102.253 81.3654 101.143 84.3837C100.962 84.8481 100.807 85.3382 100.652 85.8542C100.523 86.3185 100.368 86.8345 100.265 87.3504C100.136 88.0212 99.5673 88.5113 98.8441 88.5371C95.3831 89.0531 91.948 90.3171 88.7453 92.2004C85.491 94.1352 82.4691 96.7665 79.8605 99.9138C77.2776 103.061 75.1081 106.776 73.5584 110.904C72.112 114.773 71.2339 119.03 71.0531 123.544C71.0273 124.138 71.0273 124.705 71.0273 125.299C71.0273 125.84 71.0531 126.408 71.0531 127.001C71.0789 127.491 70.8723 128.007 70.4332 128.317C68.3153 129.839 66.404 131.413 64.6994 133.038C62.9689 134.715 61.445 136.443 60.1278 138.223C57.9841 141.138 56.4086 144.182 55.3496 147.252C54.239 150.451 53.6966 153.727 53.6449 156.952C53.6191 160.048 54.0324 163.118 54.9105 166.084C55.7887 169.103 57.1317 172.044 58.8622 174.778C59.8437 176.352 60.9543 177.9 62.1682 179.344C63.408 180.815 64.751 182.208 66.1974 183.524C66.559 183.859 66.7656 184.401 66.6623 184.917C66.2491 186.877 66.0424 188.812 65.965 190.721C65.9133 192.682 66.0166 194.617 66.2749 196.5C66.7656 199.957 67.7729 203.259 69.1935 206.303C70.6915 209.553 72.6544 212.52 74.9273 215.126C77.1227 217.68 79.628 219.898 82.3141 221.73C85.0261 223.587 87.893 225.032 90.8374 226.038C92.1546 226.477 93.4977 226.838 94.8666 227.096C96.158 227.354 97.4494 227.508 98.715 227.56C99.4123 227.534 100.058 228.024 100.213 228.747C100.885 231.817 102.124 234.706 103.829 237.311C105.611 240.046 107.858 242.471 110.441 244.483C113.695 247.011 117.518 248.92 121.547 249.926C125.344 250.881 129.347 251.062 133.273 250.236C136.786 249.514 140.195 248.017 143.346 245.644C146.239 243.451 148.925 240.51 151.172 236.692C151.301 236.46 151.508 236.28 151.766 236.151C152.489 235.764 153.393 236.047 153.78 236.77C155.64 240.227 157.913 242.987 160.444 245.077C163.182 247.321 166.204 248.843 169.381 249.72C173.436 250.829 177.671 250.829 181.778 249.978C186.169 249.075 190.405 247.166 194.046 244.535C196.913 242.497 199.445 239.994 201.459 237.157C203.37 234.5 204.791 231.533 205.617 228.411C205.721 227.818 206.186 227.302 206.831 227.199C210.628 226.528 214.373 224.954 217.808 222.607C221.243 220.259 224.369 217.164 226.926 213.475C229.276 210.069 231.161 206.148 232.375 201.866C233.512 197.867 234.054 193.533 233.873 188.967C233.822 188.451 234.054 187.935 234.519 187.625C236.74 186.103 238.703 184.504 240.46 182.879C242.242 181.176 243.817 179.422 245.16 177.59C247.226 174.804 248.75 171.915 249.809 168.948C250.894 165.878 251.462 162.757 251.566 159.635C251.643 156.617 251.282 153.624 250.507 150.683C249.732 147.717 248.518 144.853 246.942 142.144L246.891 142.093C245.858 140.313 244.644 138.61 243.301 136.959C241.958 135.308 240.434 133.76 238.807 132.29C238.419 131.954 238.212 131.413 238.316 130.871C238.677 129.091 238.91 127.311 238.987 125.557C239.065 123.777 239.013 122.022 238.832 120.294C238.445 116.708 237.489 113.303 236.095 110.13C234.622 106.776 232.659 103.68 230.361 100.972C228.14 98.3402 225.583 96.0442 222.845 94.1352C220.107 92.2262 217.188 90.7299 214.218 89.7238L214.141 89.698C212.565 89.1563 210.964 88.7693 209.388 88.5113H209.337C207.787 88.2533 206.237 88.1501 204.713 88.1759C204.016 88.2275 203.345 87.7632 203.164 87.0409C202.906 85.9832 202.57 84.9513 202.182 83.9452C201.769 82.9133 201.304 81.9072 200.762 80.901C199.367 78.3213 197.533 75.9479 195.39 73.9099C193.194 71.8203 190.689 70.0403 188.003 68.673C185.239 67.28 182.217 66.2996 179.118 65.8611C176.173 65.4483 173.152 65.4999 170.181 66.1191C166.849 66.9188 163.569 68.286 160.573 70.453ZM202.802 99.5011C202.983 98.9335 203.5 98.495 204.145 98.4434C205.23 98.366 206.341 98.4176 207.451 98.5982C208.588 98.7787 209.724 99.0625 210.861 99.4495C213.004 100.172 215.148 101.281 217.137 102.674C219.1 104.041 220.959 105.718 222.561 107.627L222.587 107.679C224.265 109.665 225.686 111.884 226.745 114.309C227.752 116.579 228.424 119.004 228.708 121.558C228.889 123.261 228.889 125.041 228.682 126.846C228.501 128.523 228.114 130.252 227.52 131.98L227.494 132.083C227.132 133.167 227.158 134.302 227.494 135.308C227.855 136.34 228.527 137.269 229.483 137.888L229.56 137.939C231.368 139.281 232.969 140.751 234.364 142.299C235.81 143.873 237.05 145.575 238.083 147.33C239.22 149.264 240.098 151.277 240.64 153.34C241.209 155.378 241.467 157.442 241.389 159.48C241.338 161.596 240.924 163.711 240.175 165.801C239.452 167.787 238.393 169.748 236.999 171.657L236.973 171.683C235.707 173.411 234.106 175.114 232.22 176.739C230.412 178.287 228.32 179.757 225.918 181.176L225.841 181.228C224.885 181.769 224.188 182.595 223.775 183.549C223.361 184.504 223.232 185.562 223.439 186.594L223.465 186.8C223.955 190.747 223.723 194.513 222.922 197.944C222.044 201.685 220.52 205.039 218.531 207.902C217.008 210.095 215.251 211.978 213.366 213.475C211.429 215.022 209.337 216.157 207.193 216.854H207.167C206.392 217.086 205.54 216.648 205.307 215.874C202.389 206.354 197.352 203.285 188.829 198.899L188.648 198.796C187.46 198.228 186.169 198.177 185.007 198.538C183.844 198.899 182.837 199.699 182.243 200.86L182.166 201.014C181.597 202.201 181.546 203.491 181.907 204.652C182.295 205.813 183.121 206.845 184.309 207.464C191.438 211.101 196.707 213.861 196.629 222.787C196.603 225.445 195.777 228.024 194.382 230.346C192.91 232.797 190.792 234.99 188.338 236.77C185.833 238.576 183.018 239.891 180.125 240.536C177.361 241.181 174.52 241.207 171.86 240.485C167.366 239.246 164.447 236.254 162.485 232.616C160.625 229.159 159.592 225.135 158.843 221.472C158.791 221.343 158.791 221.188 158.791 221.059C158.791 219.202 157.345 217.989 155.459 217.447C154.633 217.189 153.729 217.086 152.851 217.086C151.947 217.086 151.069 217.215 150.242 217.447C148.382 218.015 146.936 219.227 146.936 221.059C146.936 221.188 146.91 221.291 146.884 221.42C145.438 227.147 143.346 231.455 140.892 234.551C138.025 238.189 134.668 240.175 131.207 240.897C128.676 241.413 126.067 241.284 123.587 240.639C120.979 239.943 118.499 238.679 116.33 237.028C114.186 235.351 112.404 233.313 111.164 231.017C109.976 228.824 109.279 226.399 109.279 223.923C109.279 214.532 114.961 211.385 122.477 207.541C123.665 206.922 124.491 205.89 124.879 204.729C125.266 203.542 125.189 202.227 124.595 201.014C123.975 199.828 122.942 199.002 121.779 198.615C120.617 198.254 119.326 198.306 118.138 198.873L118.06 198.899C109.201 203.413 103.906 206.716 100.73 216.544C100.549 217.189 99.9289 217.68 99.2315 217.654C98.3534 217.628 97.4752 217.525 96.5712 217.344C95.6931 217.164 94.8149 216.931 93.9884 216.622C91.8963 215.9 89.8043 214.842 87.8413 213.5C85.9042 212.159 84.0963 210.559 82.4949 208.702C80.8419 206.793 79.4214 204.652 78.3366 202.304C77.3035 200.111 76.5803 197.764 76.2187 195.313V195.261C75.9604 193.456 75.9088 191.572 76.1154 189.638C76.2962 187.832 76.6836 185.949 77.3293 184.091L77.3551 184.014C77.7167 182.956 77.6909 181.847 77.381 180.866L77.3551 180.815C77.0194 179.783 76.3478 178.88 75.418 178.235L75.3664 178.184C73.7134 176.945 72.2153 175.63 70.8981 174.185C69.5551 172.74 68.367 171.192 67.3855 169.593C66.1974 167.658 65.2676 165.594 64.6477 163.479C64.0537 161.415 63.7437 159.3 63.7696 157.133C63.7954 154.94 64.1828 152.696 64.9576 150.503C65.7067 148.413 66.7915 146.324 68.2895 144.286C69.5551 142.557 71.1047 140.854 72.9644 139.229C74.7465 137.656 76.7611 136.159 79.0856 134.74C79.938 134.225 80.5578 133.502 80.9711 132.677L80.9969 132.599C81.4101 131.748 81.5651 130.793 81.436 129.839C81.4101 129.736 81.4101 129.633 81.4101 129.529V129.478C81.281 128.575 81.2035 127.672 81.1519 126.795C81.1002 125.84 81.1002 124.886 81.126 123.957C81.2552 120.578 81.9009 117.405 82.9598 114.541C84.0963 111.471 85.6976 108.711 87.6089 106.363C89.1844 104.428 90.9924 102.803 92.8778 101.539C94.7633 100.275 96.752 99.3721 98.7924 98.8561C99.5673 98.6239 100.42 99.0625 100.652 99.8364C102.253 104.893 104.268 108.066 108.116 111.652L108.271 111.781C109.227 112.658 110.467 113.071 111.681 113.019C112.895 112.967 114.083 112.477 114.961 111.523L115.038 111.42C115.916 110.465 116.33 109.227 116.278 108.014C116.226 106.802 115.71 105.589 114.728 104.661C111.629 101.797 110.932 100.017 110.002 97.1277C108.917 93.7998 109.098 90.5493 110.157 87.66C110.88 85.6736 112.016 83.8162 113.463 82.1909C114.883 80.5657 116.614 79.121 118.525 78.0117L118.603 77.9601C120.566 76.825 122.683 75.9995 124.879 75.5868C126.971 75.1998 129.115 75.174 131.207 75.6125C134.151 76.2317 137.044 77.7795 139.601 80.4625C141.848 82.8101 143.837 86.0606 145.412 90.3429L145.438 90.3945C145.98 92.0714 147.737 93.0517 149.803 93.4386C150.733 93.6192 151.714 93.6708 152.67 93.6192H152.696C153.677 93.5676 154.607 93.387 155.485 93.1033C157.035 92.5873 158.249 91.7618 158.533 90.7041V90.1108C158.533 87.1182 160.315 83.9452 162.769 81.3396C165.455 78.5019 169.045 76.2575 172.067 75.6384C173.978 75.2514 175.915 75.2256 177.801 75.5094C179.764 75.8189 181.675 76.4381 183.483 77.341L183.638 77.3926C185.472 78.3213 187.15 79.508 188.623 80.901C190.069 82.2941 191.309 83.8678 192.238 85.5962C193.711 88.3049 194.382 91.4006 193.917 94.6769C193.504 97.5405 193.401 99.3463 190.999 102.21L190.973 102.236C190.121 103.242 189.759 104.506 189.862 105.744C189.966 106.931 190.508 108.092 191.464 108.917L191.619 109.046C192.626 109.872 193.866 110.207 195.08 110.104C196.268 110.001 197.43 109.459 198.256 108.504L198.386 108.324C200.865 105.383 201.666 103.216 202.802 99.5011ZM259.521 225.754C259.03 224.542 258.746 223.226 258.746 221.833C258.746 220.44 259.03 219.124 259.521 217.912C260.037 216.699 260.76 215.59 261.69 214.687L261.742 214.61C262.258 214.094 262.852 213.604 263.498 213.217C263.834 213.01 264.196 212.804 264.583 212.623V196.345H244.54C244.566 195.287 244.566 194.23 244.515 193.146C244.463 192.553 244.721 191.959 245.238 191.624C247.304 190.205 249.189 188.735 250.894 187.213H269.129C270.394 187.213 271.531 187.729 272.357 188.554C273.184 189.38 273.7 190.515 273.7 191.779V212.778C274.01 212.933 274.32 213.113 274.63 213.32C275.172 213.681 275.689 214.094 276.154 214.558L276.231 214.635C277.161 215.564 277.936 216.699 278.453 217.963C278.943 219.176 279.228 220.491 279.228 221.885C279.228 223.226 278.969 224.516 278.478 225.728L278.453 225.806C277.936 227.07 277.161 228.179 276.231 229.134C275.302 230.062 274.165 230.836 272.9 231.352C271.686 231.842 270.368 232.126 268.974 232.126C267.605 232.126 266.288 231.842 265.048 231.352C263.782 230.836 262.646 230.062 261.716 229.134C260.812 228.153 260.037 227.018 259.521 225.754ZM288.551 173.514H261.303C261.768 172.508 262.181 171.502 262.543 170.47C263.266 168.458 263.782 166.42 264.092 164.382H288.551C288.732 164.046 288.913 163.711 289.12 163.376C289.507 162.757 289.972 162.189 290.463 161.699C291.418 160.744 292.529 159.996 293.795 159.48C295.008 158.99 296.326 158.706 297.72 158.706C299.063 158.706 300.355 158.964 301.569 159.455L301.646 159.48C302.912 159.996 304.022 160.77 304.978 161.699C305.908 162.628 306.683 163.763 307.199 165.027C307.69 166.239 307.974 167.555 307.974 168.948C307.974 170.315 307.69 171.631 307.199 172.869C306.683 174.133 305.908 175.268 304.978 176.197C304.048 177.126 302.912 177.9 301.646 178.416C300.432 178.906 299.115 179.19 297.72 179.19C296.377 179.19 295.086 178.932 293.872 178.441L293.795 178.416C292.529 177.9 291.418 177.126 290.463 176.197C289.972 175.707 289.533 175.165 289.145 174.572L289.094 174.494C288.913 174.185 288.732 173.85 288.551 173.514ZM297.23 148.542H262.956C262.078 145.653 260.838 142.841 259.288 140.158L259.237 140.081C259.107 139.848 258.978 139.642 258.849 139.41H292.684V109.614C292.426 109.459 292.167 109.304 291.909 109.124C291.393 108.762 290.928 108.375 290.489 107.937C289.559 107.008 288.784 105.873 288.267 104.609C287.777 103.396 287.492 102.081 287.492 100.688C287.492 99.3205 287.777 97.979 288.267 96.7665C288.784 95.5024 289.559 94.3932 290.489 93.4386C291.418 92.5099 292.555 91.736 293.82 91.2201C295.034 90.7299 296.352 90.4461 297.746 90.4461C299.115 90.4461 300.432 90.7299 301.672 91.2201C302.938 91.736 304.074 92.5099 305.004 93.4386C305.934 94.3674 306.709 95.5024 307.225 96.7665C307.716 97.979 308 99.2947 308 100.688C308 102.029 307.742 103.319 307.251 104.532L307.225 104.609C306.709 105.873 305.934 106.982 305.004 107.937C304.436 108.504 303.764 109.02 303.067 109.459C302.679 109.691 302.24 109.923 301.827 110.104V143.95C301.827 145.214 301.311 146.349 300.484 147.175C299.632 148.026 298.495 148.542 297.23 148.542ZM261.406 126.511H249.732C250.042 124.808 250.223 123.106 250.3 121.403C250.352 120.036 250.352 118.694 250.274 117.379H256.835V103.912C256.473 103.732 256.137 103.551 255.801 103.319C255.182 102.932 254.613 102.468 254.071 101.926C253.141 100.997 252.366 99.8622 251.85 98.5982C251.359 97.3857 251.075 96.07 251.075 94.7027C251.075 93.3354 251.359 92.0198 251.85 90.7815C252.366 89.569 253.089 88.4597 253.993 87.531L254.071 87.4536C255.001 86.5249 256.137 85.751 257.403 85.235C258.617 84.7449 259.934 84.4611 261.329 84.4611C262.723 84.4611 264.041 84.7449 265.254 85.235C266.468 85.751 267.579 86.4733 268.509 87.402L268.586 87.4536C269.516 88.3823 270.265 89.4658 270.782 90.7041L270.808 90.7815C271.298 91.994 271.582 93.3097 271.582 94.7027C271.582 96.07 271.298 97.4115 270.808 98.6239C270.291 99.8364 269.568 100.946 268.664 101.874L268.586 101.952C268.096 102.442 267.553 102.881 266.933 103.293C266.623 103.5 266.313 103.68 265.978 103.835V121.945C265.978 123.209 265.461 124.344 264.635 125.17C263.808 125.995 262.646 126.511 261.406 126.511ZM80.4028 48.422C81.6168 48.9121 82.934 49.1959 84.3287 49.1959C85.7234 49.1959 87.0407 48.9121 88.2546 48.422C89.4685 47.906 90.5791 47.1837 91.4831 46.255L91.5606 46.2034C92.0771 45.6874 92.5679 45.0941 92.9553 44.4491C93.1619 44.1138 93.3686 43.7526 93.5494 43.3656H109.847V57.4253C112.714 55.9032 115.813 54.7939 118.99 54.149V38.7995C118.99 37.5354 118.473 36.4003 117.647 35.5748C116.82 34.7493 115.684 34.2333 114.418 34.2333H93.3944C93.2394 33.9237 93.0586 33.6142 92.852 33.3046C92.4904 32.7629 92.0771 32.2469 91.6122 31.7826L91.5348 31.7052C90.6049 30.7764 89.4685 30.0025 88.2029 29.4866C86.989 28.9964 85.6718 28.7126 84.2771 28.7126C82.934 28.7126 81.6168 28.9706 80.4287 29.4608L80.3512 29.4866C79.0856 30.0025 77.975 30.7764 77.0194 31.7052C76.0896 32.6339 75.3147 33.769 74.7981 35.033C74.3074 36.2455 74.0233 37.5612 74.0233 38.9543C74.0233 40.3215 74.3074 41.6372 74.7981 42.8755C75.3147 44.1396 76.0896 45.2747 77.0194 46.2034C78.0267 47.1321 79.1373 47.906 80.4028 48.422ZM132.731 19.4255V54.665C135.778 55.5421 138.749 56.9351 141.538 58.9473L141.848 59.1795C141.848 59.1021 141.874 59.0247 141.874 58.9473V19.4255C142.209 19.245 142.545 19.0644 142.881 18.858C143.501 18.471 144.069 18.0067 144.56 17.5165C145.49 16.562 146.264 15.4527 146.781 14.1886C147.272 12.9762 147.556 11.6605 147.556 10.2674C147.556 8.92594 147.298 7.63607 146.807 6.42358L146.781 6.34619C146.264 5.08211 145.49 3.97282 144.56 3.01831C143.63 2.0896 142.494 1.31567 141.228 0.799723C140.014 0.30957 138.697 0.0257975 137.302 0.0257975C135.933 0.0257975 134.616 0.30957 133.376 0.799723C132.111 1.31567 130.974 2.0896 130.044 3.01831C129.115 3.94702 128.34 5.08211 127.823 6.34619C127.332 7.55868 127.048 8.87435 127.048 10.2674C127.048 11.6089 127.307 12.8988 127.797 14.1112L127.823 14.1886C128.34 15.4527 129.115 16.562 130.044 17.5165C130.535 18.0067 131.078 18.4452 131.672 18.8322L131.723 18.858C132.059 19.0644 132.369 19.245 132.731 19.4255ZM157.706 10.7576V62.301C158.946 61.0369 160.263 59.9277 161.606 58.9473C163.285 57.7349 165.042 56.7288 166.849 55.9548V15.2979H196.681C196.836 15.5559 196.991 15.8139 197.172 16.0719C197.533 16.5878 197.921 17.0522 198.36 17.4907C199.29 18.4194 200.426 19.1934 201.692 19.7093C202.905 20.1995 204.223 20.4832 205.617 20.4832C206.986 20.4832 208.329 20.1995 209.543 19.7093C210.809 19.1934 211.945 18.4194 212.875 17.4907C213.805 16.562 214.58 15.4269 215.096 14.1628C215.587 12.9504 215.871 11.6347 215.871 10.2416C215.871 8.87435 215.587 7.55868 215.096 6.32039C214.58 5.05632 213.805 3.92122 212.875 2.99251C211.894 2.0638 210.757 1.28988 209.492 0.773926C208.278 0.283773 206.96 0 205.592 0C204.249 0 202.957 0.257975 201.743 0.748128L201.666 0.773926C200.4 1.28988 199.29 2.0638 198.334 2.99251C197.766 3.56006 197.249 4.23079 196.81 4.92733C196.578 5.31429 196.345 5.75285 196.164 6.16561H162.278C161.012 6.16561 159.876 6.68156 159.049 7.50708C158.223 8.3584 157.706 9.49349 157.706 10.7576ZM179.764 46.5387V53.6073C180.693 53.6589 181.649 53.7362 182.579 53.891C184.748 54.2006 186.866 54.7424 188.907 55.4905V51.1307H202.389C202.57 51.4919 202.751 51.8272 202.983 52.1626C203.37 52.7817 203.835 53.3493 204.378 53.891C205.307 54.8197 206.444 55.5937 207.71 56.1096C208.923 56.5998 210.241 56.8835 211.61 56.8835C212.978 56.8835 214.296 56.5998 215.535 56.1096C216.749 55.5937 217.86 54.8713 218.79 53.9684L218.867 53.891C219.797 52.9623 220.572 51.8272 221.088 50.5632C221.579 49.3507 221.863 48.035 221.863 46.6419C221.863 45.2489 221.579 43.9332 221.088 42.7207C220.572 41.5082 219.849 40.3989 218.919 39.4702L218.867 39.3928C217.937 38.4641 216.853 37.716 215.613 37.2L215.535 37.1742C214.322 36.6841 213.004 36.4003 211.61 36.4003C210.241 36.4003 208.898 36.6841 207.684 37.1742C206.47 37.6902 205.359 38.4125 204.429 39.3154L204.352 39.3928C203.861 39.883 203.422 40.4247 203.009 41.0439C202.802 41.3534 202.621 41.663 202.466 41.9984H184.335C183.07 41.9984 181.933 42.5143 181.107 43.3398C180.28 44.1396 179.764 45.2747 179.764 46.5387ZM48.4793 90.8073C48.9701 92.0198 49.2542 93.3355 49.2542 94.7285C49.2542 96.1216 48.9701 97.4373 48.4793 98.6497C47.9628 99.8622 47.2396 100.972 46.3098 101.874L46.2581 101.952C45.7416 102.468 45.1475 102.958 44.5018 103.345C44.166 103.551 43.8044 103.758 43.417 103.938V120.216H60.3344V121.016C60.3344 121.635 60.3602 122.28 60.3861 122.951C60.4377 123.519 60.1795 124.086 59.6887 124.447C57.4675 126.021 55.4787 127.672 53.6708 129.349H38.8971C37.6315 129.349 36.4951 128.833 35.6686 128.007C34.8421 127.182 34.3255 126.047 34.3255 124.783V103.783C34.0156 103.629 33.7057 103.448 33.3957 103.242C32.8533 102.881 32.3368 102.468 31.8719 102.003L31.7944 101.926C30.8646 100.997 30.0897 99.8622 29.5732 98.5982C29.0824 97.3857 28.7983 96.07 28.7983 94.6769C28.7983 93.3355 29.0566 92.0456 29.5473 90.8331L29.5732 90.7557C30.0897 89.4916 30.8646 88.3823 31.7944 87.4278C32.7242 86.4991 33.8606 85.7252 35.1262 85.2092C36.3401 84.7191 37.6574 84.4353 39.0521 84.4353C40.421 84.4353 41.7382 84.7191 42.9779 85.2092C44.2435 85.7252 45.38 86.4991 46.3098 87.4278C47.1879 88.4081 47.9628 89.5432 48.4793 90.8073ZM19.4486 143.047H43.727C43.3137 143.976 42.9521 144.931 42.6164 145.859C41.8932 147.949 41.3766 150.038 41.0667 152.154H19.4486C19.2678 152.489 19.087 152.825 18.8803 153.16C18.4929 153.779 18.028 154.347 17.5373 154.837C16.5816 155.791 15.471 156.539 14.2055 157.055C12.9915 157.546 11.6743 157.829 10.2796 157.829C8.93652 157.829 7.64512 157.571 6.43119 157.081L6.35371 157.055C5.08813 156.539 3.97753 155.765 3.02189 154.837C2.09208 153.908 1.31723 152.773 0.800671 151.509C0.309937 150.296 0.0258281 148.981 0.0258281 147.588C0.0258281 146.22 0.309937 144.905 0.800671 143.666C1.31723 142.402 2.09208 141.267 3.02189 140.339C3.9517 139.41 5.08813 138.636 6.35371 138.12C7.56763 137.63 8.88486 137.346 10.2796 137.346C11.6226 137.346 12.914 137.604 14.128 138.094L14.2055 138.12C15.471 138.636 16.5816 139.41 17.5373 140.339C18.028 140.829 18.4671 141.37 18.8545 141.964L18.9062 142.041C19.087 142.377 19.2678 142.712 19.4486 143.047ZM10.7703 168.019H42.3581C43.3395 171.141 44.7601 174.159 46.5681 177.023V177.048L46.6197 177.152H15.3161V206.948C15.5743 207.103 15.8326 207.257 16.0909 207.438C16.6075 207.799 17.0724 208.186 17.5114 208.625C18.4413 209.553 19.2161 210.688 19.7327 211.952C20.2234 213.165 20.5075 214.481 20.5075 215.874C20.5075 217.241 20.2234 218.582 19.7327 219.795C19.2161 221.059 18.4413 222.168 17.5114 223.123C16.5816 224.052 15.4452 224.825 14.1796 225.341C12.9657 225.832 11.6485 226.115 10.2538 226.115C8.88486 226.115 7.56763 225.832 6.32788 225.341C5.06231 224.825 3.92587 224.052 2.99606 223.123C2.06625 222.117 1.2914 220.982 0.774843 219.743C0.284109 218.531 0 217.215 0 215.822C0 214.481 0.258281 213.191 0.749015 211.978L0.774843 211.901C1.2914 210.637 2.06625 209.528 2.99606 208.573C3.56428 208.005 4.23581 207.49 4.93317 207.051C5.32059 206.819 5.75967 206.587 6.17291 206.406V172.56C6.17291 171.296 6.68948 170.16 7.51597 169.335C8.3683 168.535 9.50474 168.019 10.7703 168.019ZM46.5939 190.05H55.1171C54.833 191.753 54.6781 193.43 54.6264 195.081C54.5748 196.474 54.6006 197.841 54.7039 199.183H51.1654V212.649C51.527 212.83 51.8628 213.01 52.1986 213.242C52.8184 213.629 53.3867 214.094 53.9291 214.635C54.8589 215.564 55.6337 216.699 56.1503 217.963C56.641 219.176 56.9251 220.491 56.9251 221.885C56.9251 223.278 56.641 224.567 56.1503 225.806C55.6337 227.018 54.9105 228.128 54.0065 229.056L53.9291 229.134C52.9992 230.062 51.8628 230.836 50.5972 231.352C49.3833 231.842 48.0661 232.126 46.6714 232.126C45.2766 232.126 43.9594 231.842 42.7455 231.352C41.5316 230.836 40.421 230.114 39.4912 229.185L39.4137 229.134C38.4839 228.205 37.7348 227.121 37.2183 225.883L37.1925 225.806C36.7017 224.593 36.4176 223.278 36.4176 221.885C36.4176 220.517 36.7017 219.176 37.1925 217.963C37.709 216.751 38.4322 215.642 39.3362 214.713L39.4137 214.635C39.9044 214.145 40.4468 213.707 41.0667 213.294C41.3766 213.088 41.6865 212.907 42.0223 212.752V194.642C42.0223 193.378 42.5389 192.243 43.3654 191.418C44.1919 190.541 45.3283 190.05 46.5939 190.05ZM170.543 297.574V261.484C167.314 260.478 164.267 258.852 161.477 256.556L161.426 256.505V297.6C161.09 297.781 160.754 297.961 160.418 298.168C159.798 298.555 159.23 299.019 158.739 299.509C157.81 300.464 157.035 301.573 156.518 302.837C156.027 304.05 155.743 305.365 155.743 306.758C155.743 308.1 156.002 309.39 156.492 310.602L156.518 310.68C157.035 311.944 157.81 313.053 158.739 314.008C159.669 314.936 160.806 315.71 162.071 316.226C163.285 316.716 164.602 317 165.997 317C167.366 317 168.683 316.716 169.923 316.226C171.189 315.71 172.325 314.936 173.255 314.008C174.185 313.079 174.96 311.944 175.476 310.68C175.967 309.467 176.251 308.151 176.251 306.758C176.251 305.417 175.993 304.127 175.502 302.915L175.476 302.837C174.96 301.573 174.185 300.464 173.255 299.509C172.764 299.019 172.222 298.581 171.628 298.194L171.55 298.142C171.214 297.936 170.879 297.755 170.543 297.574ZM145.541 306.242V254.235C144.457 255.344 143.32 256.324 142.132 257.227C140.298 258.62 138.387 259.729 136.398 260.607V301.728H106.567C106.412 301.47 106.257 301.212 106.076 300.954C105.714 300.438 105.327 299.974 104.888 299.535C103.958 298.606 102.822 297.832 101.556 297.316C100.342 296.826 99.0249 296.543 97.6302 296.543C96.2613 296.543 94.9182 296.826 93.7043 297.316C92.4387 297.832 91.3281 298.606 90.3725 299.535C89.4427 300.464 88.6678 301.599 88.1513 302.863C87.6605 304.075 87.3764 305.391 87.3764 306.784C87.3764 308.151 87.6605 309.467 88.1513 310.705C88.6678 311.97 89.4427 313.105 90.3725 314.033C91.3023 314.962 92.4387 315.736 93.7043 316.252C94.9182 316.742 96.2355 317.026 97.6302 317.026C98.9732 317.026 100.265 316.768 101.479 316.278L101.556 316.252C102.822 315.736 103.932 314.962 104.888 314.033C105.456 313.466 105.973 312.795 106.412 312.098C106.644 311.712 106.877 311.273 107.057 310.86H140.944C142.209 310.86 143.346 310.344 144.172 309.519C145.025 308.642 145.541 307.507 145.541 306.242ZM123.484 270.461V262.954C121.47 262.851 119.455 262.541 117.492 262.051C116.433 261.793 115.374 261.458 114.341 261.097V265.921H100.859C100.678 265.56 100.497 265.224 100.265 264.889C99.8772 264.27 99.4123 263.702 98.8699 263.161C97.9401 262.232 96.8037 261.458 95.5381 260.942C94.3242 260.452 93.007 260.168 91.6381 260.168C90.2692 260.168 88.952 260.452 87.7122 260.942C86.4983 261.458 85.3877 262.18 84.4579 263.083L84.3804 263.135C83.4506 264.063 82.6757 265.199 82.1592 266.463C81.6684 267.675 81.3843 268.991 81.3843 270.384C81.3843 271.777 81.6684 273.093 82.1592 274.305C82.6757 275.518 83.3989 276.627 84.3287 277.556L84.3804 277.633C85.3102 278.562 86.395 279.31 87.6347 279.826L87.7122 279.852C88.9261 280.342 90.2434 280.625 91.6381 280.625C93.007 280.625 94.3242 280.342 95.5639 279.852C96.7779 279.336 97.8885 278.613 98.8183 277.71L98.8958 277.633C99.3865 277.143 99.8256 276.601 100.239 275.982C100.445 275.672 100.626 275.363 100.781 275.027H118.913C120.178 275.027 121.315 274.511 122.141 273.686C122.968 272.86 123.484 271.725 123.484 270.461Z" fill="white"/>
</svg>
