<?xml version="1.0" encoding="UTF-8"?>
<svg version="1.1" viewBox="0 0 512 640" xmlns="http://www.w3.org/2000/svg">
 <path d="m0 0v640h512v-640h-512z" fill="#fff"/>
 <path d="m113 229c-27.198 9.021-10.638 44.779-9.086 64 0.801 9.91-0.246 22.69 3.94 31.907 2.451 5.395 8.846 6.66 14.146 7.093 0.013 19.777-0.741 42.007 5.344 61 6.818 21.279 19.817 35.723 34.581 52 12.917 14.241 26.954 32.338 45.075 40.127 9.421 4.05 18.273 3.764 28.004 5.674 9.403 1.845 19.391 4.272 28.996 2.76 22.727-3.577 38.929-19.909 57-32.851 15.841-11.345 32.072-21.521 41.985-38.71 5.265-9.129 9.147-21.45 9.925-32 0.682-9.254-0.108-22.295 3.828-30.856 1.769-3.846 6.988-4.083 10.258-6.139 4.165-2.618 6.777-6.67 8.894-11.005 12.717-26.039 13.915-53.531 20.411-81 7.303-30.881 17.006-60.292 14.609-93-1.024-13.966-5.45-30.591-13.656-42-5.084-7.068-14.874-13.868-17.942-22-1.521-4.0327 0.307-8.7911-0.961-13-1.958-6.4987-6.734-10.865-7.261-18-0.362-4.9131 2.068-15.388-1.118-19.397-4.89-6.168-14.11 4.436-15.96 8.4-17.2-12.369-32.49-26.11-53-33.771-15.2-5.68-31.04-5.229-47-5.229-24.1 0-50.95-0.705-74 7.345-20.07 7.008-34.06 24.622-48.09 39.655-10.684 11.451-25.118 20.483-33.442 34-4.803 7.8-4.547 16.52-7.088 25-9.146 30.526-11.869 69.713 1.62 100z" fill="#010101"/>
 <path d="m124 254h1c5.526-9.722 3.926-21.496 8.92-31 6.325-12.037 18.257-20.808 22.718-34 3.614-10.687-1.035-24.839 5.617-34 8.072-11.118 17.821-22.072 30.745-27.396 3.368-1.387 11.126-5.82 13.457-0.744 1.999 4.353-2.793 12.646-3.457 17.14 13.245-5.599 21.658-13.296 37-13.961 3.971-0.172 12.298-0.456 13.083 5.055 0.964 6.778-12.266 16.328-14.083 23.906 8.021-1.856 16.811-4.461 22.996-10.105 2.866-2.616 7.431-10.568 11.903-9.974 4.744 0.63 5.939 9.447 7.101 13.079 9.025-1.868 17.182-4.63 23.985-11.09 3.065-2.91 7.99-11.643 12.906-10.989 3.674 0.489 3.911 5.297 4.263 8.079 1.017 8.031 1.846 15.899 1.846 24h1c3.268-5.62 4.398-18.629 9.43-22.338 7.149-5.27 15.079 15.54 15.57 20.338h1c1.753-4.148 1.691-18.302 7.054-19.079 3.408-0.493 5.255 4.778 6.532 7.079 4.365 7.861 8.765 15.631 12.105 24 6.145 15.401 0.213 29.515 1.753 45 0.901 9.05 9.945 16.928 12.027 26 2.871 12.512-1.471 26.32-1.471 39 5.323-2.966 13.644-7.238 16.987-12.465 4.648-7.266 7.289-21.994 9.387-30.535 7.547-30.725 13.142-68.882 0.608-99-5.387-12.946-17.754-20.19-24.403-32-2.439-4.332 0.149-9.3309-0.998-14-2.83-11.54-7.58-18.365-7.58-31.015-2.961 3.6163-3.103 12.989-10 9.8017-5.696-2.6326-8.79-9.3221-13.286-13.423-6.81-6.215-16.66-11.177-24.71-15.668-26.96-15.038-56.04-13.43-86-12.696-17.89 0.438-40.38 2.127-56 11.438-15.06 8.981-25.79 23.331-38 35.547-9.214 9.2169-20.604 17.326-28.211 28-5.589 7.843-4.913 16.255-7.426 25-2.145 7.467-6.339 14.086-7.189 22-3.72 34.62 9.154 67.147 11.826 101z" fill="#b97b57"/>
 <path d="m361 157h-1c-0.661 4.392-11.454 25.456-16.972 17.663-3.87-5.46-0.47-16.62-4.03-23.66h-1c-3.619 11.102-10.443 18.277-16.391 28-1.349 2.205-4.217 9.815-7.995 6.338-3.052-2.809 0.401-9.172 1.23-12.338 2.679-10.232 0.241-20.673 0.156-31-11.676 8.224-34.315 29.782-43 8h-1c-7.756 9.736-18.629 12.978-30 16.67-3.018 0.979-9.762 4.126-11.84 0.011-3.774-7.477 9.769-22.729 12.84-28.681-14.996 0.31-25.774 5.574-37 15.282-2.604 2.253-8.485 9.381-12.407 6.064-5.472-4.628 3.139-18.994 4.407-24.346-11.072 1.975-26.575 15.999-29.566 27-4.08 15.004-0.325 26.802-9.789 41-5.075 7.613-12.946 14.691-16.721 23-3.635 8-2.903 17.734-6.389 26-2.357 5.591-7.897 10.088-9.232 16-4.441 19.667 2.642 41.516 4.527 61 1.723 17.801-0.917 36.491 3.058 54 5.801 25.548 22.183 41.866 38.83 61 10.076 11.58 22.17 25.965 36.282 32.674 8.794 4.18 16.74 4.421 26 5.769 15.787 2.298 29.672 5.789 45-1.358 13.998-6.527 26.451-19.122 39-28.085 24.055-17.181 46.23-34.709 47-67 0.832-34.854 15.998-68.227 16-103 1e-3 -12.251 4.154-27.23 1.61-39-1.845-8.53-11.337-15.225-12.459-23.019-1.645-11.426 2.624-24.19 1.759-35.981-0.727-9.908-5.997-19.582-10.91-28z" fill="#ffd9b3"/>
 <path d="m202 144 1 1-1-1z" fill="#fff"/>
 <path d="m158 248 33-6.996 43 8.996c-0.763-16.704-12.872-21.926-28-21.999-18.588-0.09-36.575 3.825-48 19.999z" fill="#010101"/>
 <path d="m169 242 30-3.829 32 8.829c-6.331-22.248-48.91-21.68-62-5z" fill="#b97b57"/>
 <path d="m113 237c-16.035 14.809-1.957 46.236-0.17 65 0.746 7.83-1.232 19.465 8.17 22-2.363-18.601-3.999-36.208-4-55-1e-3 -9.047 0.709-24.138-4-32z" fill="#ffd9b3"/>
 <path d="m283 254 35 0.464 30 6.401 21 9.135c2.041-9.892-8.609-16.016-16-20.395-15.861-9.398-61.908-20.789-70 4.395z" fill="#010101"/>
 <path d="m168 242 1 1-1-1z" fill="#fff"/>
 <path d="m288 252c28.565-1.227 53.384 1.366 79 15-10.15-21.766-62.835-35.932-79-15z" fill="#b97b57"/>
 <path d="m267 304h3c0.719-9.114 0.608-27.678 6.434-34.895 6.734-8.344 23.704-9.192 33.566-11.105-3.311-4.96-13.963-0.503-19 0.651-6.013 1.379-13.269 2.811-17.436 7.817-6 7.21-6.16 28.28-6.56 37.53m-102.39-40.97c-6.635 5.214 10.746 10.395 13.392 11.393 13.322 5.024 25.827 7.195 40 4.986 3.516-0.548 9.741-0.485 12.392-3.151 3.083-3.1-0.145-5.972-3.411-6.186-7.304-0.477-14.645 2.59-21.981 2.587-7.72-2e-3 -14.853-2.812-22-5.317-4.138-1.45-14.291-7.534-18.392-4.312m83.39-1.03l-9.721 43-6.279 23h2c5.231-16.048 9.99-31.374 13.197-48 1.021-5.297 4.155-13.397 0.803-18m39.608 14.042c-6.491 4.932 10.597 11.788 13.392 12.946 13.071 5.42 25.228 4.933 39 3.923 3.742-0.274 11.608 0.125 14.392-2.653 4.756-4.745-3.251-6.298-6.392-6.243-14.378 0.254-27.037 4.016-41-1.619-4.159-1.679-15.083-9.627-19.392-6.354z" fill="#010101"/>
 <path d="m405 280 1 1-1-1z" fill="#fff"/>
 <path d="m404 281-14.68 11.38-3.12 16.62-8.2 39c17.446-5.196 19.886-35.297 22.808-50 1.047-5.27 5.045-11.777 3.192-17z" fill="#ffd9b3"/>
 <path d="m217 323c-6.145 10.81-6.592 22.367 8 25l-9.07-10.04 1.07-14.96m70 7-1.742 17.606l-11.26 5.39v1c17.33 3.707 15.484-12.722 15-24h-2m-61 10c8.648 0.688 14.596 2.677 16 12h3c-0.601-7.344-12.275-22.253-19-12m29 13 24-6v-3c-8.832 0-20.979-1.667-24 9m-63.392 34.031c-2.561 2.017-0.528 5.206 1.54 6.552 5.437 3.539 13.674 5.423 19.852 7.388 21.259 6.764 40.908 7.667 63 6.119 4.995-0.351 16.672 0.88 20.392-2.832 6.251-6.236-7.544-6.359-10.392-6.088-22.594 2.15-44.126 3.448-66-3.837-5.492-1.828-23.387-11.245-28.392-7.302m19.39 29.97c16.086 18.765 44.572 12.214 65 8-3.036-4.548-9.522-1.217-14-0.13-8.755 2.127-18.238 3.452-27 0.61-7.347-2.383-16.336-9.379-24-8.48z" fill="#010101"/>
</svg>
