<svg width="530" height="554" viewBox="0 0 530 554" fill="none" xmlns="http://www.w3.org/2000/svg">
<path d="M265.159 470.208C384.876 470.208 481.926 464.783 481.926 458.092C481.926 451.4 384.876 445.976 265.159 445.976C145.442 445.976 48.3916 451.4 48.3916 458.092C48.3916 464.783 145.442 470.208 265.159 470.208Z" fill="white"/>
<path d="M236.997 183.781H159.443C148.075 183.781 138.86 193.413 138.86 205.294C138.86 217.176 148.075 226.808 159.443 226.808H236.997C248.365 226.808 257.58 217.176 257.58 205.294C257.58 193.413 248.365 183.781 236.997 183.781Z" fill="#F06D57"/>
<path d="M51.8234 296.243C51.7571 294.434 51.3543 290.357 48.495 286.825C47.4588 285.545 45.7549 283.454 43.99 283.687C40.8577 284.1 39.4717 291.825 39.0424 294.213C38.054 299.728 37.2828 311.509 46.11 329.483C46.253 331.34 46.7966 333.14 47.7 334.746C49.8571 338.558 53.3551 339.921 54.4124 340.286C57.7305 344.606 62.0915 347.921 67.045 349.89C79.2668 354.654 90.2113 348.909 92.1325 347.857L102.998 353.674L207.408 393.193L329.35 335.796L340.554 336.192C345.261 335.445 349.644 333.232 353.13 329.843C356.617 326.454 359.046 322.046 360.101 317.193C363.13 312.007 365.209 306.277 366.23 300.296C367.124 294.535 367.004 288.652 365.878 282.936C365.204 279.515 363.996 273.662 361.108 273.15C360.212 272.989 359.462 273.399 358.988 273.657C354.748 275.964 354.875 283.629 354.893 284.352L354.247 285.213C352.996 283.518 351.421 282.113 349.622 281.089C341.797 276.701 333.018 281.961 332.31 282.382C330.903 283.213 329.66 284.235 325.068 289.953C322.418 293.277 318.771 297.986 314.642 303.988H304.928C305.588 296.517 305.17 288.984 303.69 281.643C302.333 274.936 299.143 260.147 286.966 247.541C279.313 239.619 270.87 235.42 264.499 233.154C262.334 232.45 259.027 231.395 254.975 230.168C248.135 228.098 243.432 226.844 238.662 225.514C233.892 224.184 227.039 222.254 218.495 219.697L217.652 202.8C220.096 201.323 222.302 199.453 224.19 197.26C230.722 189.637 231.284 180.31 231.554 174.546C231.949 166.075 232.657 150.926 222.778 142.048C215.673 135.677 206.904 135.954 195.04 136.326C183.399 136.694 172.878 137.029 165.89 145.19C159.837 152.256 159.766 161.297 159.708 169.012C159.662 174.61 159.538 190.703 170.482 199.664C173.176 201.843 176.261 203.434 179.553 204.343C179.002 210.049 178.452 215.753 177.902 221.456C163.065 225.007 148.705 230.465 135.15 237.705C115.702 248.137 110.078 255.876 108.472 258.203C101.373 268.491 99.3167 279.512 98.2275 285.349C96.7448 293.315 96.3876 301.465 97.1675 309.539L87.0975 309.171C86.3211 306.235 83.8142 298.337 76.85 294.396C74.8227 293.249 72.0031 292.709 66.3666 291.626C57.5341 289.93 55.7003 291.055 54.8841 292.058C54.007 293.135 53.901 294.551 53.9434 295.573L51.8234 296.243Z" fill="#FFBBBE"/>
<path d="M179.906 136.384C181.048 139.94 186.361 155.189 202.047 164.206C216.115 172.294 229.607 170.241 233.494 169.502C234.024 166.455 234.864 159.297 231.61 151.527C227.688 142.154 220.342 137.916 217.477 136.262C200.976 126.733 182.529 135.137 179.906 136.384Z" fill="#F06D57"/>
<path d="M187.885 166.607C185.692 164.563 183.003 163.19 180.113 162.638C174.309 161.558 169.846 164.3 168.718 165.037" stroke="black" stroke-width="5" stroke-linecap="round" stroke-linejoin="round"/>
<path d="M202.489 166.607C204.682 164.563 207.371 163.19 210.261 162.638C216.065 161.558 220.528 164.3 221.656 165.037" stroke="black" stroke-width="5" stroke-linecap="round" stroke-linejoin="round"/>
<path d="M189.342 177.41L196.41 182.305" stroke="black" stroke-width="5" stroke-linecap="round" stroke-linejoin="round"/>
<path d="M184.527 190.061C188.157 192.269 192.305 193.374 196.503 193.252C200.701 193.13 204.783 191.785 208.29 189.368" stroke="black" stroke-width="5" stroke-linecap="round" stroke-linejoin="round"/>
<path d="M136.917 367.709C157.426 365.59 179.254 364.025 202.282 363.277C229.94 362.38 255.987 362.77 280.192 364.017L209.88 396.517L136.917 367.709Z" fill="#F4E12C"/>
<path d="M158.234 226.747C159.53 249.369 178.014 267.034 199.574 266.388C220.981 265.748 238.399 247.275 238.678 224.777L264.47 230.071C264.625 247.143 264.783 264.215 264.942 281.285C266.691 284.332 272.685 295.606 269.592 309.171C268.613 313.412 266.875 317.422 264.47 320.988L266.06 364.017C244.904 363.902 223.057 364.21 200.518 364.939C179.651 365.639 159.393 366.685 139.742 368.078V325.605C137.394 321.296 135.725 316.619 134.798 311.755C132.473 299.49 135.593 289.401 137.357 284.795C136.151 268.729 134.944 252.663 133.738 236.597L158.234 226.747Z" fill="#0EBDFF"/>
<path d="M137.357 286.734C135.94 290.025 131.668 301.044 135.237 314.157C140.506 333.505 158.237 340.472 160.118 341.178" stroke="black" stroke-width="5" stroke-linecap="round" stroke-linejoin="round"/>
<path d="M264.388 281.474C265.591 283.316 273.133 295.307 269.372 310.088C266.158 322.664 255.985 332.381 243.182 335.209" stroke="black" stroke-width="5" stroke-linecap="round" stroke-linejoin="round"/>
<path d="M65.2271 315.691L70.5085 315.079L70.5986 309.539C69.0738 309.725 67.5287 309.524 66.0936 308.955C64.1707 308.167 62.536 306.763 61.4243 304.944C62.6433 307.301 63.6358 309.778 64.387 312.34C64.7368 313.506 65.0098 314.628 65.2271 315.691Z" fill="#FFECE5"/>
<path d="M61.3607 304.78C62.4221 306.29 63.8156 307.511 65.4235 308.339C67.0314 309.168 68.8065 309.579 70.5986 309.539L70.5085 315.079" stroke="black" stroke-width="5" stroke-linecap="round" stroke-linejoin="round"/>
<path d="M87.5665 331.885C81.8112 326.198 74.3778 322.725 66.4857 322.035C65.9806 318.472 65.1527 314.968 64.0133 311.57C63.425 309.816 58.3635 295.019 53.6571 295.587C52.4116 295.736 51.5954 296.911 51.174 297.526C45.7866 305.512 52.7799 328.658 54.0016 332.611" stroke="black" stroke-width="5" stroke-linecap="round" stroke-linejoin="round"/>
<path d="M98.9324 328.929C99.1709 330.868 99.5817 336.311 96.5474 341.857C94.8481 345.062 92.304 347.69 89.2175 349.427C88.5762 349.779 85.64 351.339 80.4725 351.552C72.5596 351.876 66.1042 348.782 62.4525 346.566" stroke="black" stroke-width="5" stroke-linecap="round" stroke-linejoin="round"/>
<path d="M348.812 300.459L343.53 299.847L343.443 294.307C344.967 294.493 346.513 294.293 347.948 293.723C349.871 292.936 351.506 291.532 352.617 289.712C351.399 292.069 350.407 294.546 349.657 297.108C349.304 298.274 349.031 299.396 348.812 300.459Z" fill="#FFECE5"/>
<path d="M352.681 289.548C351.619 291.057 350.225 292.278 348.617 293.106C347.009 293.934 345.235 294.346 343.443 294.307L343.53 299.847" stroke="black" stroke-width="5" stroke-linecap="round" stroke-linejoin="round"/>
<path d="M326.48 316.653C332.237 310.967 339.671 307.493 347.563 306.802C348.069 303.24 348.896 299.736 350.036 296.337C350.624 294.584 355.686 279.787 360.392 280.355C361.638 280.504 362.454 281.679 362.875 282.294C368.263 290.279 361.269 313.426 360.048 317.378" stroke="black" stroke-width="5" stroke-linecap="round" stroke-linejoin="round"/>
<path d="M315.106 313.697C314.868 315.636 314.46 321.079 317.491 326.625C319.19 329.831 321.736 332.459 324.824 334.195C325.465 334.547 328.399 336.106 333.569 336.32C341.479 336.644 347.937 333.55 351.589 331.334" stroke="black" stroke-width="5" stroke-linecap="round" stroke-linejoin="round"/>
<path d="M160.59 440.837C192.467 400.949 222.335 373.496 244.33 355.521C261.573 341.428 275.661 331.782 293.442 333.361C309.149 334.746 327.482 344.882 335.137 363.277C342.438 380.828 336.568 397.625 333.722 405.75C325.343 429.716 307.206 441.818 300.862 445.638L215.71 446.009C214.933 452.297 212.514 456.258 211.117 458.197C206.999 463.875 201.411 466.114 196.277 468.169C190.145 470.623 189.411 469.59 184.262 471.493C174.333 475.16 174.86 479.82 165.537 484.418C155.634 489.304 142.634 490.174 140.097 485.526C139.806 484.979 139.644 484.367 139.626 483.742C137.804 484.114 135.922 484.009 134.148 483.434C132.76 482.975 130.303 482.157 129.142 479.678C128.57 478.39 128.406 476.946 128.673 475.554C128.435 475.554 125.011 475.642 123.018 472.662C122.329 471.612 121.931 470.384 121.869 469.113C121.807 467.842 122.083 466.577 122.666 465.46C122.104 465.255 119.422 464.213 118.132 461.274C117.69 460.236 117.467 459.111 117.477 457.974C117.487 456.838 117.73 455.717 118.19 454.687C120.103 450.654 127.115 448.87 135.327 451.302C140.465 448.492 145.777 446.045 151.227 443.976C154.476 442.743 157.609 441.71 160.59 440.837Z" fill="#FFBBBE"/>
<path d="M292.215 415.567C293.959 417.402 295.847 419.081 297.86 420.586C307.75 427.968 318.374 429.369 324.596 429.572L306.692 447.671L268.18 447.909C269.063 439.558 269.947 431.207 270.83 422.854C278.334 421.852 285.59 419.376 292.215 415.558V415.567Z" fill="#F4E12C"/>
<path d="M291.587 432.159C282.601 427.854 273.059 423.572 262.967 419.417C252.632 415.151 242.618 411.384 233.022 408.06C220.053 399.548 209.62 392.326 202.46 387.285C185.481 375.327 179.302 370.26 167.302 364.139C161.541 361.2 152.674 356.79 140.715 353.491C123.88 348.845 101.572 342.688 86.2124 354.876C74.457 364.202 72.3741 379.831 71.6374 385.346C68.1924 411.107 83.2073 436.037 102.112 447.671C107.203 450.791 112.721 453.078 118.474 454.454C118.741 453.814 119.098 453.218 119.534 452.687C123.877 447.474 134.358 450.97 135.317 451.302L155.338 443.854C158.783 444.114 165.739 444.638 174.537 445.269C211.515 447.926 216.174 447.845 221.352 452.657C229.201 459.945 231.491 472.191 238.489 472.784C242.234 473.102 246.439 472.23 246.439 472.23C248.436 471.817 250.389 471.199 252.269 470.385C260.551 473.207 269.372 473.841 277.945 472.23C281.125 473.969 284.835 473.736 287.414 471.634C289.846 469.642 290.329 466.726 290.432 465.964C292.964 465.312 295.269 463.927 297.082 461.967C298.894 460.007 300.14 457.552 300.677 454.884C301.827 454.075 304.689 451.817 305.887 447.773C306.257 446.518 306.436 445.209 306.417 443.895C307.891 442.419 308.985 440.577 309.597 438.541C309.83 437.743 311.807 430.602 307.389 427.275C304.437 425.059 300.089 425.633 297.497 427.921C296.572 428.749 295.846 429.793 295.377 430.968L291.587 432.159Z" fill="#FFBBBE"/>
<path d="M116.799 431.012C111.574 438.634 103.891 444.027 95.1641 446.197L121.842 460.911L155.054 458.435C156.752 453.711 158.45 448.988 160.147 444.267C145.044 442.656 130.351 438.163 116.799 431.012Z" fill="#F4E12C"/>
<path d="M271.161 422.816C277.681 421.903 284.015 419.881 289.91 416.83C306.833 408.038 315.042 393.188 318.058 386.914" stroke="black" stroke-width="5" stroke-linecap="round" stroke-linejoin="round"/>
<path d="M151.315 477.033C149.751 476.114 147.986 475.637 146.193 475.648C144.997 475.648 143.187 475.678 141.688 476.939C139.833 478.498 139.273 481.157 139.655 483.218C139.851 484.141 140.218 485.014 140.736 485.789C142.771 488.695 149.404 489.221 157.36 487.404" stroke="black" stroke-width="5" stroke-linecap="round" stroke-linejoin="round"/>
<path d="M140.863 472.047C138.478 469.936 135.264 469.368 132.617 470.631C129.574 472.083 127.486 475.872 128.437 478.878C129.389 481.883 132.919 482.833 134.207 483.188C135.992 483.668 137.864 483.679 139.655 483.218" stroke="black" stroke-width="5" stroke-linecap="round" stroke-linejoin="round"/>
<path d="M135.267 463.737C134.898 463.424 131.853 460.945 128.024 461.95C125.493 462.618 122.419 464.859 122.194 468.352C121.977 471.756 124.537 475.169 128.366 475.95" stroke="black" stroke-width="5" stroke-linecap="round" stroke-linejoin="round"/>
<path d="M135.328 451.302C127.643 448.255 120.707 449.964 118.72 453.887C117.851 455.604 117.692 458.205 118.484 460.535C119.288 462.803 120.897 464.661 122.976 465.723" stroke="black" stroke-width="5" stroke-linecap="round" stroke-linejoin="round"/>
<path d="M206.228 389.925C211.152 385.052 218.217 378.23 226.999 370.335C234.806 363.316 241.076 358.097 247.036 353.327C261.645 341.632 267.549 338.394 273.87 336.253C278.54 334.635 283.404 333.703 288.32 333.483C292.636 333.322 296.955 333.734 301.172 334.707C312.711 337.416 320.812 344.15 324.898 348.128" stroke="black" stroke-width="5" stroke-linecap="round" stroke-linejoin="round"/>
<path d="M86.7424 407.229C95.8691 417.323 106.612 425.675 118.487 431.907C122.335 433.918 137.514 441.56 158.626 444.095C173.514 445.887 177.608 443.488 194.158 445.632C203.821 446.887 213.346 449.114 222.6 452.28" stroke="black" stroke-width="5" stroke-linecap="round" stroke-linejoin="round"/>
<path d="M277.012 460.873C279.824 457.668 284.366 457.23 287.347 459.582C289.96 461.643 290.853 465.429 289.732 468.446C288.325 472.235 283.884 474.435 279.575 472.969" stroke="black" stroke-width="5" stroke-linecap="round" stroke-linejoin="round"/>
<path d="M286.552 449.516C290.122 446.746 294.484 446.516 297.242 448.685C300.001 450.854 300.059 454.502 300.062 454.967C300.091 459.576 296.167 464.15 290.201 466.047" stroke="black" stroke-width="5" stroke-linecap="round" stroke-linejoin="round"/>
<path d="M292.912 439.729C293.881 438.518 295.161 437.623 296.602 437.148C298.042 436.673 299.582 436.64 301.04 437.051C304.652 438.109 306.377 441.729 306.692 444.438C307.188 448.674 304.53 453.075 300.067 454.964" stroke="black" stroke-width="5" stroke-linecap="round" stroke-linejoin="round"/>
<path d="M306.639 443.848C307.974 442.627 309.008 441.088 309.652 439.361C309.917 438.63 311.926 433.159 308.592 429.203C307.604 428.033 306.33 427.165 304.906 426.693C303.483 426.221 301.963 426.163 300.51 426.525C296.477 427.586 294.987 431.511 294.857 431.882L291.587 432.159C282.091 427.316 272.361 422.989 262.437 419.195C247.499 413.497 243.275 413.298 233.022 408.06C229.54 406.279 227.513 405.013 208.224 391.315C183.722 373.914 181.66 372.163 174.757 368.233C166.09 363.265 157.045 359.056 147.714 355.649C138.17 352.221 128.323 349.796 118.32 348.411C110.9 347.389 106.533 347.397 101.922 348.272C96.8505 349.247 91.9827 351.146 87.54 353.881" stroke="black" stroke-width="5" stroke-linecap="round" stroke-linejoin="round"/>
<path d="M457.406 312.849H388.021C390.694 337.192 393.37 361.535 396.048 385.878H448.083C451.189 361.535 454.297 337.192 457.406 312.849Z" stroke="black" stroke-width="5.71" stroke-linecap="round" stroke-linejoin="round"/>
<path d="M418.043 254.062C430.548 241.641 421.048 215.814 417.457 206.055C406.211 175.48 380.887 159.907 369.344 153.868L361.216 165.577C361.817 160.522 362.417 155.468 363.016 150.414C338.005 136.758 315.149 136.315 306.144 147.472C300.46 154.516 301.533 164.646 302.317 172.086C305.42 201.448 326.061 221.041 335.082 228.594L359.462 205.235L344.378 235.118L365.419 247.552L374.32 229.99L370.176 249.799C388.294 262.751 408.423 263.615 418.043 254.062Z" fill="#099672"/>
<path d="M503.132 150.652C513.292 158.685 509.701 179.51 508.347 187.38C504.107 212.033 488.292 226.882 480.962 232.841L473.937 224.847C474.945 228.636 475.954 232.422 476.963 236.204C461.153 249.549 445.293 252.547 437.719 245.068C432.949 240.359 432.499 232.483 432.175 226.719C430.898 203.936 442.971 186.554 448.367 179.743L468.072 194.737L454.072 173.685L467.264 161.768L475.516 174.139L470.311 159.497C481.407 147.486 495.319 144.481 503.132 150.652Z" fill="#099672"/>
<path d="M493.062 181.557C473.116 196.623 456.789 216.324 445.368 239.108C433.946 261.892 427.742 287.137 427.244 312.855H418.303C418.99 304.07 418.859 295.235 417.913 286.476C414.828 258.006 403.868 238.045 399.252 229.802C377.614 191.277 343.84 172.837 330.471 166.394" stroke="black" stroke-width="5.71" stroke-linecap="round" stroke-linejoin="round"/>
<path d="M160.118 101.98H56.2118V113.26H160.118V101.98Z" stroke="black" stroke-width="5" stroke-linecap="round" stroke-linejoin="round"/>
<path d="M96.0439 101.98H65.1025L62.4525 77.0587H98.6939L96.0439 101.98Z" stroke="black" stroke-width="5" stroke-linecap="round" stroke-linejoin="round"/>
<path d="M64.2015 77.0587C64.2015 77.0587 50.4533 56.087 61.8509 52.7713C73.2486 49.4556 88.0144 69.2279 80.5732 70.2223C73.132 71.2168 77.9471 48.115 88.8756 50.8185C99.8042 53.522 93.81 77.0587 93.81 77.0587" stroke="black" stroke-width="5" stroke-linecap="round" stroke-linejoin="round"/>
<path d="M121.033 101.653C133.371 101.653 143.373 91.1988 143.373 78.3024C143.373 65.4059 133.371 54.9513 121.033 54.9513C108.696 54.9513 98.6938 65.4059 98.6938 78.3024C98.6938 91.1988 108.696 101.653 121.033 101.653Z" stroke="black" stroke-width="5" stroke-linecap="round" stroke-linejoin="round"/>
<path d="M124.502 65.1754L121.033 78.3024L128.567 77.0587" stroke="black" stroke-width="5" stroke-linecap="round" stroke-linejoin="round"/>
<path d="M496.467 374.493V355.294H439.956V374.493H461.717V416.985H439.956V436.181H496.467V416.985H474.702V374.493H496.467Z" fill="#FFECE5" stroke="black" stroke-width="5.71" stroke-linecap="round" stroke-linejoin="round"/>
<path d="M381.136 460.903C389.236 460.903 395.801 447.68 395.801 431.369C395.801 415.058 389.236 401.836 381.136 401.836C373.037 401.836 366.471 415.058 366.471 431.369C366.471 447.68 373.037 460.903 381.136 460.903Z" fill="#F06D57"/>
<path d="M381.139 401.836H365.348V460.906H381.139V401.836Z" fill="#F06D57"/>
<path d="M366.471 460.903C374.57 460.903 381.136 447.68 381.136 431.369C381.136 415.058 374.57 401.836 366.471 401.836C358.372 401.836 351.806 415.058 351.806 431.369C351.806 447.68 358.372 460.903 366.471 460.903Z" fill="#F4E12C"/>
<path d="M442.738 460.903C450.837 460.903 457.403 447.68 457.403 431.369C457.403 415.058 450.837 401.836 442.738 401.836C434.639 401.836 428.073 415.058 428.073 431.369C428.073 447.68 434.639 460.903 442.738 460.903Z" fill="#F06D57"/>
<path d="M442.741 401.836H426.949V460.906H442.741V401.836Z" fill="#F06D57"/>
<path d="M428.073 460.903C436.172 460.903 442.738 447.68 442.738 431.369C442.738 415.058 436.172 401.836 428.073 401.836C419.974 401.836 413.408 415.058 413.408 431.369C413.408 447.68 419.974 460.903 428.073 460.903Z" fill="#F4E12C"/>
<path d="M424.485 438.156C428.071 438.156 430.977 435.117 430.977 431.369C430.977 427.621 428.071 424.583 424.485 424.583C420.899 424.583 417.992 427.621 417.992 431.369C417.992 435.117 420.899 438.156 424.485 438.156Z" fill="#F06D57"/>
<path d="M424.485 424.583H389.372V438.156H424.485V424.583Z" fill="#F06D57"/>
<path d="M159.702 169.433C163.012 166.943 166.035 164.061 168.712 160.846C175.867 152.231 178.907 143.143 180.277 137.506C180.452 136.575 180.47 135.525 179.93 134.714C178.175 132.076 171.426 133.254 167.387 135.453C157.707 140.716 156.257 155.838 155.727 161.491C155.274 166.231 155.105 174.668 158.552 184.945L161.385 184.731C160.123 179.743 159.556 174.59 159.7 169.433H159.702Z" fill="#F06D57"/>
<path d="M180.282 137.506C179.882 135.786 180.494 134.714 180.494 134.714C180.78 134.437 181.249 134.004 181.859 133.52C187.885 128.257 199.155 128.024 208.642 130.653C215.18 132.462 218.54 134.697 222.422 137.946C234.212 147.805 231.697 164.483 231.552 167.369C220.125 161.491 181.159 141.27 180.282 137.506Z" fill="#F06D57"/>
</svg>
