<svg width="320" height="336" viewBox="0 0 320 336" fill="none" xmlns="http://www.w3.org/2000/svg">
<path d="M142.776 50.0908H97.1484V109.395H142.776V50.0908Z" stroke="black" stroke-width="5" stroke-linecap="round" stroke-linejoin="round"/>
<path d="M139.069 53.9717H100.856V105.512H139.069V53.9717Z" stroke="black" stroke-width="5" stroke-linecap="round" stroke-linejoin="round"/>
<path d="M119.963 72.364C123.137 72.364 125.71 69.6623 125.71 66.3295C125.71 62.9967 123.137 60.2949 119.963 60.2949C116.789 60.2949 114.216 62.9967 114.216 66.3295C114.216 69.6623 116.789 72.364 119.963 72.364Z" stroke="black" stroke-width="5" stroke-linecap="round" stroke-linejoin="round"/>
<path d="M129.136 79.7427H110.788V82.1972H129.136V79.7427Z" stroke="black" stroke-width="5" stroke-linecap="round" stroke-linejoin="round"/>
<path d="M132.905 87.5464H107.021V89.9555H132.905V87.5464Z" stroke="black" stroke-width="5" stroke-linecap="round" stroke-linejoin="round"/>
<path d="M33.7245 235.673H29.5645V289.803H33.7245V235.673Z" fill="black"/>
<path d="M66.3565 150.928H25.4125C23.7291 150.928 22.3645 152.361 22.3645 154.128V242.402C22.3645 244.17 23.7291 245.602 25.4125 245.602H66.3565C68.0399 245.602 69.4045 244.17 69.4045 242.402V154.128C69.4045 152.361 68.0399 150.928 66.3565 150.928Z" fill="#292929"/>
<path d="M75.6365 150.946H34.6925C33.0092 150.946 31.6445 152.379 31.6445 154.147V230.121C31.6445 231.889 33.0092 233.322 34.6925 233.322H75.6365C77.3199 233.322 78.6845 231.889 78.6845 230.121V154.147C78.6845 152.379 77.3199 150.946 75.6365 150.946Z" fill="black"/>
<path d="M294.265 289.343H297.244C297.244 278.938 288.219 270.359 276.576 269.152V217.62H270.928V269.152L270.777 269.168L270.657 269.152V269.183C259.137 270.493 250.259 279.019 250.259 289.343H253.238C253.606 280.87 259.958 273.828 268.486 271.738C261.625 275.288 257.029 281.774 257.029 289.197H260.009C260.357 281.166 266.089 274.428 273.939 271.965C282.041 274.3 287.992 281.151 288.339 289.343H291.318C291.318 282.055 286.886 275.667 280.232 272.077C288.153 274.512 293.913 281.28 294.265 289.343Z" stroke="black" stroke-width="5" stroke-linecap="round" stroke-linejoin="round"/>
<path d="M303.819 174.298H269.446C264.681 174.298 260.819 178.354 260.819 183.356V219.448C260.819 224.451 264.681 228.506 269.446 228.506H303.819C308.584 228.506 312.446 224.451 312.446 219.448V183.356C312.446 178.354 308.584 174.298 303.819 174.298Z" fill="black"/>
<path d="M302.225 221.338H256.552C255.02 221.338 253.779 222.641 253.779 224.249V232.762C253.779 234.37 255.02 235.673 256.552 235.673H302.225C303.757 235.673 304.998 234.37 304.998 232.762V224.249C304.998 222.641 303.757 221.338 302.225 221.338Z" fill="#292929"/>
<path d="M189.244 201.401H184.444V289.803H189.244V201.401Z" fill="black"/>
<path d="M295.059 201.401H290.259V289.803H295.059V201.401Z" fill="black"/>
<path d="M237.316 118.485C235.348 123.588 233.381 128.69 231.414 133.792L243.859 134.388C244.286 131.104 244.712 127.819 245.139 124.533L237.316 118.485Z" fill="black"/>
<path d="M197.55 270.061C197.081 270.118 196.65 270.358 196.342 270.733C192.841 274.967 189.408 277.547 186.774 279.162C180.201 283.194 174.763 283.582 172.467 288.501C171.877 289.793 171.559 291.203 171.532 292.635C171.525 292.902 171.569 293.167 171.661 293.414C171.753 293.662 171.892 293.888 172.07 294.078C172.247 294.269 172.46 294.419 172.694 294.521C172.928 294.623 173.18 294.674 173.433 294.672L200.504 294.418C200.972 294.414 201.423 294.226 201.767 293.892C202.11 293.557 202.323 293.099 202.361 292.609C202.817 286.692 205.104 282.754 207.001 282.681C208.899 282.609 211.38 286.305 212.32 291.99C212.395 292.445 212.62 292.857 212.955 293.155C213.29 293.454 213.714 293.62 214.153 293.625L216.849 293.652C217.096 293.654 217.341 293.606 217.571 293.508C217.8 293.411 218.009 293.268 218.185 293.086C218.361 292.904 218.502 292.688 218.599 292.449C218.695 292.21 218.746 291.954 218.748 291.695C218.812 284.387 218.878 277.078 218.944 269.769C218.946 269.489 218.892 269.213 218.785 268.957C218.678 268.701 218.52 268.472 218.322 268.285C218.125 268.097 217.892 267.956 217.638 267.871C217.385 267.785 217.117 267.757 216.852 267.788L197.55 270.061Z" fill="black"/>
<path d="M234.243 270.061C233.774 270.119 233.343 270.358 233.035 270.733C229.534 274.967 226.1 277.548 223.468 279.162C216.896 283.194 211.456 283.582 209.16 288.501C208.57 289.793 208.252 291.203 208.227 292.636C208.219 292.902 208.263 293.166 208.355 293.414C208.447 293.662 208.586 293.888 208.763 294.078C208.94 294.268 209.152 294.419 209.386 294.521C209.62 294.623 209.871 294.674 210.124 294.672L237.196 294.418C237.665 294.414 238.115 294.226 238.459 293.892C238.802 293.557 239.014 293.099 239.052 292.609C239.51 286.692 241.796 282.754 243.692 282.682C245.588 282.609 248.073 286.305 249.012 291.99C249.088 292.445 249.312 292.858 249.647 293.156C249.982 293.455 250.407 293.621 250.846 293.625L253.54 293.652C253.788 293.655 254.033 293.606 254.262 293.509C254.491 293.412 254.7 293.269 254.877 293.087C255.053 292.905 255.194 292.689 255.29 292.45C255.387 292.211 255.438 291.954 255.44 291.695L255.635 269.769C255.637 269.49 255.583 269.213 255.476 268.957C255.369 268.701 255.212 268.471 255.014 268.284C254.816 268.097 254.583 267.956 254.33 267.87C254.076 267.785 253.808 267.757 253.544 267.788L234.243 270.061Z" fill="black"/>
<path d="M187.859 243.514V268.378C191.948 270.26 196.312 271.396 200.764 271.738C209.75 272.41 216.764 269.64 220.284 267.929C232.861 272.967 246.729 273.166 259.432 268.49V243.401L218.684 215.962L187.859 243.514Z" fill="#0EBDFF"/>
<path d="M253.806 270.223C242.667 273.015 230.984 272.216 220.284 267.929V224.864" stroke="black" stroke-width="5" stroke-linecap="round" stroke-linejoin="round"/>
<path d="M223.469 279.157C221.387 280.391 219.233 281.482 217.017 282.424C215.097 283.236 213.429 283.807 211.577 285.418C210.373 286.463 209.745 287.379 209.345 288.131C208.829 289.105 208.491 290.171 208.347 291.275" stroke="white" stroke-width="5" stroke-linecap="round" stroke-linejoin="round"/>
<path d="M252.953 129.034C244.54 128.903 234.579 128.891 226.219 135.682C225.595 136.186 223.123 138.24 220.468 142.005C209.708 157.266 207.974 183.6 207.598 192.032C207.083 194.371 206.567 196.71 206.051 199.05C203.651 199.619 199.921 200.844 196.291 203.754C188.803 209.76 186.836 218.874 185.091 226.938C183.686 233.492 183.201 240.228 183.651 246.93H212.648C213.757 239.511 215.715 232.26 218.478 225.333C219.102 229.251 219.894 233.397 220.896 237.728C221.641 240.95 222.443 244.02 223.278 246.93H263.172V229.29C266.155 228.241 271.576 225.836 276.292 220.386C284.752 210.611 284.427 198.579 284.292 195.915C286.91 192.308 290.64 186.12 292.132 177.714C295.233 160.257 287.614 139.41 272.932 132.018C267.444 129.257 262.612 129.192 252.953 129.034Z" fill="white"/>
<path d="M230.233 173.751L223.093 173.814C221.146 172.567 218.936 171.842 216.659 171.704C216.673 171.574 216.673 171.442 216.659 171.311C216.625 171.03 216.527 170.762 216.374 170.528C215.382 169.76 214.277 169.167 213.102 168.773C208.497 167.239 204.385 169.393 203.219 170.004C200.693 171.344 198.566 173.384 197.067 175.904C194.845 179.662 192.563 187.031 196.392 191.994C198.675 194.952 202.099 195.722 203.787 195.952L230.419 195.839C230.262 193.263 230.151 190.612 230.086 187.884C229.973 182.935 230.038 178.216 230.233 173.751Z" fill="#F16D55"/>
<path d="M227.502 136.928C225.537 139.448 219.182 148.262 219.752 160.596C219.98 165.198 221.117 169.699 223.092 173.814" stroke="black" stroke-width="5" stroke-linecap="round" stroke-linejoin="round"/>
<path d="M269.724 150.723C269.228 154.051 268.767 157.467 268.339 160.971C268 163.762 267.697 166.506 267.432 169.203L230.489 169.184C230.144 174.32 229.968 179.829 230.044 185.667C230.09 189.117 230.215 192.44 230.419 195.634" stroke="black" stroke-width="5" stroke-linecap="round" stroke-linejoin="round"/>
<path d="M262.099 130.841L269.779 139.97L258.524 140.921L261.299 149.657C251.753 153.529 243.543 160.336 237.742 169.187" stroke="black" stroke-width="5" stroke-linecap="round" stroke-linejoin="round"/>
<path d="M238.169 132.148L231.059 137.748L234.542 139.241L226.222 147.008C225.758 156.119 227.125 165.23 230.233 173.75" stroke="black" stroke-width="5" stroke-linecap="round" stroke-linejoin="round"/>
<path d="M223.272 246.929C222.323 243.579 221.417 240.053 220.577 236.355C219.251 230.506 218.256 224.931 217.512 219.713" stroke="black" stroke-width="5" stroke-linecap="round" stroke-linejoin="round"/>
<path d="M243.539 133.119L256.659 131.626V132.671C246.902 139.305 239.129 148.698 234.233 159.768C234.233 159.05 234.233 158.061 234.307 156.89C234.833 148.125 238.073 139.78 243.534 133.128L243.539 133.119Z" fill="#0EBDFF"/>
<path d="M235.699 109.45C235.135 108.149 234.844 106.735 234.844 105.305C234.844 104.969 234.88 102.449 236.232 100.155C238.043 97.0768 241.192 96.1226 243.592 95.3935C245.107 94.9349 254.363 92.3208 260.604 98.1386C261.274 98.7679 261.883 99.4657 262.42 100.222C266.592 106.009 265.941 113.158 265.461 116.283L235.699 109.45Z" fill="black"/>
<path d="M241.544 135.767L242.526 127.152C241.889 127.079 241.262 126.926 240.659 126.699C239.867 126.395 239.123 125.967 238.454 125.429C237.233 124.394 236.683 122.977 236.284 121.63C235.099 117.613 234.329 110.987 235.752 104.896C236.158 103.153 236.774 101.329 238.329 100.096C238.697 99.8043 239.098 99.5606 239.521 99.3701L256.374 99.8187C259.337 103.676 262.3 107.534 265.262 111.392C265.374 112.36 265.742 116.449 263.129 120.352C260.377 124.463 256.305 125.402 255.449 125.578L255.384 133.642L252.278 136.162C251.331 136.276 250.324 136.359 249.262 136.391C246.675 136.476 244.088 136.267 241.544 135.767Z" fill="#F16D55"/>
<path d="M232.587 169.184C232.689 166.544 233.083 163.925 233.761 161.38C235.825 153.652 240.001 148.718 244.072 144.021C247.809 139.711 252.037 135.899 256.659 132.671" stroke="black" stroke-width="5" stroke-linecap="round" stroke-linejoin="round"/>
<path d="M265.182 132.454L266.265 125.963L268.838 131.974L268.878 132.066C269.46 131.826 269.998 131.581 270.478 131.345C271.408 125.813 271.155 120.133 269.737 114.716C268.32 109.299 265.773 104.28 262.281 100.024C254.843 96.9187 246.597 96.6871 239.011 99.37C240.335 102.637 242.548 105.421 245.372 107.373C248.196 109.326 251.506 110.36 254.888 110.345C255.067 109.956 256.216 107.55 258.478 107.098C261.339 106.527 264.326 109.406 264.718 112.587C265.038 115.187 263.513 117.675 261.518 118.913C258.889 120.546 256.155 119.567 255.758 119.417C255.217 124.153 253.957 128.766 252.025 133.083C252.596 133.251 253.222 133.403 253.9 133.528C254.905 133.712 255.921 133.813 256.94 133.828L258.654 128.501L259.454 134.032C260.532 134.013 261.608 133.926 262.676 133.771C263.504 133.65 264.291 133.496 265.035 133.316L265.182 132.454Z" fill="black"/>
<path d="M260.51 111.469L257.289 113.593L260.797 115.115" stroke="black" stroke-width="5" stroke-linecap="round" stroke-linejoin="round"/>
<path d="M236.392 109.04C237.334 108.523 238.401 108.31 239.458 108.43C240.515 108.55 241.514 108.996 242.329 109.712C242.473 110.425 242.485 111.159 242.365 111.876C242.005 114.005 240.571 115.251 240.125 115.611C240.993 116.416 242.01 117.025 243.112 117.402" stroke="black" stroke-width="5" stroke-linecap="round" stroke-linejoin="round"/>
<path d="M241.139 120.678C241.75 121.192 242.474 121.538 243.245 121.686C244.397 121.886 245.579 121.648 246.579 121.014" stroke="black" stroke-width="5" stroke-linecap="round" stroke-linejoin="round"/>
<path d="M245.405 109.395C246.468 108.732 247.668 108.347 248.903 108.274C250.138 108.201 251.371 108.441 252.499 108.975" stroke="black" stroke-width="5" stroke-linecap="round" stroke-linejoin="round"/>
<path d="M227.644 173.774L223.092 173.814C222.462 173.438 221.81 173.104 221.139 172.814C216.124 170.646 209.817 170.842 206.792 173.878C206.372 174.3 205.252 175.423 205.484 176.594C205.644 177.434 206.444 177.918 206.632 178.031C207.632 178.637 208.324 178.224 210.259 178.217C211.795 178.217 213.619 178.232 214.739 179.45C214.929 179.659 215.419 180.21 215.459 181.018C215.507 182.026 214.819 182.733 214.659 182.884C214.278 183.257 213.78 183.504 212.259 183.677C210.648 183.86 209.468 183.785 207.236 183.929C206.339 183.988 205.928 184.04 205.505 184.356C204.744 184.926 204.369 186.036 204.499 186.992C204.697 188.46 206.099 189.43 207.129 189.791C208.137 190.142 209.472 190.038 212.142 189.828C212.827 189.776 213.529 189.703 213.921 190.164C214.361 190.683 214.18 191.609 214.099 192.032C213.971 192.607 213.742 193.151 213.422 193.636C212.598 194.829 208.377 196.012 202.579 196.361" stroke="black" stroke-width="5" stroke-linecap="round" stroke-linejoin="round"/>
<path d="M174.275 169.87C173.694 169.796 170.076 169.273 167.769 165.824C165.083 161.806 166.521 157.332 166.667 156.9C167.166 156.937 171.048 157.288 173.422 160.895C176.121 164.996 174.401 169.552 174.275 169.87Z" fill="#099672"/>
<path d="M173.273 173.234C173.563 171.847 173.993 170.495 174.553 169.202C175.666 166.659 177.263 164.381 179.246 162.509L180.633 164.304C177.757 166.703 175.554 169.878 174.261 173.488L173.273 173.234Z" stroke="black" stroke-width="5" stroke-linecap="round" stroke-linejoin="round"/>
<path d="M187.325 182.807C187.376 182.009 187.741 174.508 182.685 172C178.717 170.031 174.461 172.653 173.992 172.951C173.425 172.585 169.622 170.199 166.006 171.808C160.801 174.123 161.267 182.362 161.299 182.807C161.717 188.797 166.433 196.471 174.312 196.471C182.153 196.471 186.944 188.867 187.325 182.807Z" fill="#DD3354"/>
<path d="M166.969 180.756C168.334 180.756 169.44 179.595 169.44 178.162C169.44 176.73 168.334 175.568 166.969 175.568C165.605 175.568 164.499 176.73 164.499 178.162C164.499 179.595 165.605 180.756 166.969 180.756Z" fill="white"/>
<path d="M112.456 269.257C112.615 277.014 112.775 284.769 112.936 292.523C112.946 293.095 113.169 293.64 113.558 294.041C113.947 294.442 114.471 294.667 115.016 294.667H161.416C161.772 294.668 162.123 294.574 162.434 294.393C162.746 294.211 163.008 293.949 163.195 293.631C163.382 293.313 163.488 292.949 163.504 292.575C163.519 292.202 163.442 291.83 163.281 291.497C163.104 291.12 162.907 290.732 162.685 290.336C159.104 283.923 153.245 282.117 147.539 278.614C144.219 276.573 139.779 273.238 135.219 267.602C135.021 267.357 134.774 267.16 134.496 267.026C134.217 266.892 133.914 266.823 133.608 266.826L114.52 267.019C114.244 267.021 113.971 267.081 113.717 267.195C113.463 267.309 113.233 267.475 113.041 267.684C112.849 267.892 112.698 268.138 112.598 268.408C112.497 268.678 112.449 268.967 112.456 269.257Z" fill="black"/>
<path d="M67.7198 269.257L68.075 292.523C68.0926 293.714 68.7806 294.667 69.6206 294.667H104.021C105.171 294.667 105.915 292.955 105.405 291.497C105.224 290.983 105.104 290.554 104.961 290.336C103.408 287.959 96.8717 283.384 93.9949 280.032C89.6253 274.942 91.2749 269.867 86.5277 267.6C86.0877 267.39 85.1933 267.202 83.4061 266.826C76.6861 265.413 72.9198 266.969 69.2542 267.019C68.3902 267.031 67.7006 268.037 67.7198 269.257Z" fill="black"/>
<path d="M38.1517 198.497C37.3357 200.419 31.6061 214.532 38.6317 228.905C43.5101 238.882 51.7181 243.223 54.4717 244.529V270.233C71.9116 275.032 90.2995 274.448 107.432 268.553C112.469 269.11 117.925 269.485 123.752 269.561C132.311 269.671 140.867 269.128 149.352 267.936C149.821 263.699 149.964 259.429 149.779 255.168C149.406 246.637 148.459 224.904 133.352 210.761C130.152 207.772 123.838 202.784 113.512 200.177L38.1517 198.497Z" fill="#F06D57"/>
<path d="M73.3693 273.317C81.8306 273.673 90.3013 272.928 98.5885 271.1C101.862 270.376 104.926 269.519 107.774 268.59C108.425 259.574 108.418 250.519 107.752 241.505C107.296 235.457 106.681 231.477 104.712 227.057C102.3 221.642 98.9325 217.985 96.5517 215.801" stroke="black" stroke-width="5" stroke-linecap="round" stroke-linejoin="round"/>
<path d="M159.805 201.401H155.005V294.667H159.805V201.401Z" fill="#163342"/>
<path d="M265.619 201.401H260.819V294.667H265.619V201.401Z" fill="#163342"/>
<path d="M302.782 195.634H150.747C150.182 195.634 149.724 196.115 149.724 196.708V202.121C149.724 202.714 150.182 203.194 150.747 203.194H302.782C303.347 203.194 303.804 202.714 303.804 202.121V196.708C303.804 196.115 303.347 195.634 302.782 195.634Z" fill="#0EBDFF"/>
<path d="M302.784 195.634H251.353C250.789 195.634 250.331 196.115 250.331 196.708V202.121C250.331 202.714 250.789 203.194 251.353 203.194H302.784C303.348 203.194 303.806 202.714 303.806 202.121V196.708C303.806 196.115 303.348 195.634 302.784 195.634Z" fill="#163342"/>
<path d="M126.845 144.394C113.105 133.38 97.8237 132.431 90.2589 131.962C80.9053 131.382 68.6749 130.566 56.4445 138.346C55.1645 139.164 34.3085 152.925 33.6189 177.658C33.5533 179.976 33.2253 203.076 48.4445 212.043C53.0557 214.758 57.6589 215.332 60.7117 215.403H88.4461V202.41H130.792C143.883 202.41 146.139 197.979 147.325 196.362C155.353 185.408 144.261 158.355 126.845 144.394Z" fill="#F4E12C"/>
<path d="M88.4541 195.532C92.5136 195.142 96.606 195.635 100.476 196.978C104.873 198.508 108.851 201.134 112.068 204.632C116.59 209.592 117.508 214.149 117.436 216.243C117.416 216.789 117.366 218.111 116.548 218.632C115.697 219.173 114.457 218.568 114.129 218.408C113.886 218.289 113.457 218.047 112.459 216.989C111.796 216.286 111.178 215.538 110.609 214.749C111.052 215.421 112.689 218.022 112.014 220.33C111.785 221.118 111.425 221.402 111.321 221.478C110.374 222.168 108.9 221.454 108.201 221.115C107.761 220.9 106.961 220.458 104.788 218.259C104.028 217.489 103.427 216.836 103.028 216.397C103.789 217.391 104.268 218.589 104.411 219.855C104.483 220.557 104.651 222.225 103.745 222.934C103.211 223.351 102.537 223.26 102.193 223.215C101.083 223.07 100.38 222.375 98.6253 220.611C97.4733 219.448 96.5885 218.544 96.1453 218.091C94.1852 217.812 92.3525 216.913 90.8909 215.514C89.804 214.456 88.966 213.147 88.4429 211.692C88.4471 206.308 88.4509 200.921 88.4541 195.532Z" fill="#FF9E9F"/>
<path d="M104.371 221.855C104.498 220.572 104.36 219.275 103.966 218.052C103.177 215.629 101.552 214.188 100.446 213.219C99.6953 212.555 98.8827 211.973 98.0205 211.481" stroke="black" stroke-width="5" stroke-linecap="round" stroke-linejoin="round"/>
<path d="M112.165 219.451C112.142 218.599 111.998 217.755 111.737 216.947C111.44 216.057 111.013 215.221 110.472 214.469C108.928 212.209 106.862 210.269 105.885 209.392" stroke="black" stroke-width="5" stroke-linecap="round" stroke-linejoin="round"/>
<path d="M75.1821 109.749C74.3305 107.039 74.0339 104.17 74.3117 101.331C74.4397 100.069 74.6317 98.1757 75.4717 96.3579C78.3245 90.1957 86.691 89.1608 87.9117 89.0096C90.5949 88.6736 96.9262 87.8958 101.565 92.7241C106.085 97.4281 105.638 103.97 105.55 105.018L82.5102 115.572L75.1821 109.749Z" fill="#292929"/>
<path d="M81.1565 119.604C80.6819 124.832 80.2077 130.059 79.7341 135.285C82.4598 136.947 85.5141 137.927 88.6592 138.147C91.8043 138.367 94.9554 137.821 97.8669 136.553C97.9149 133.069 97.9624 129.585 98.0093 126.1C99.2701 125.667 101.877 124.553 103.557 121.845C104.517 120.293 104.819 118.792 105.049 116.992C105.862 110.634 106.969 101.917 102.099 97.9588C101.341 97.3423 100.704 97.0583 99.8589 96.682C94.5597 94.33 87.1533 95.1885 84.3565 99.5935C83.7645 100.524 83.5565 101.433 83.1469 103.252C82.3704 106.7 82.1781 110.264 82.5789 113.781L80.9261 113.838C81.1325 111.283 80.1357 108.951 78.3469 107.92C78.0077 107.723 76.6061 106.979 75.0205 107.496C72.9485 108.168 72.2061 110.47 72.0541 110.944C71.1389 113.773 72.2013 117.675 75.1117 119.38C77.8493 120.985 80.7453 119.784 81.1565 119.604Z" fill="#FF9E9F"/>
<path d="M102.616 103.108C101.586 102.709 100.451 102.729 99.4349 103.165C98.6882 103.505 98.0493 104.062 97.5933 104.77C98.0353 107.109 98.8853 109.343 100.1 111.359L97.7885 113.264" stroke="black" stroke-width="5" stroke-linecap="round" stroke-linejoin="round"/>
<path d="M93.4221 105.082C92.3368 104.463 91.0829 104.252 89.8677 104.483C88.6525 104.714 87.5488 105.373 86.7389 106.352" stroke="black" stroke-width="5" stroke-linecap="round" stroke-linejoin="round"/>
<path d="M93.1917 118.475C93.8093 117.833 95.4317 116.326 97.8429 116.068C98.7719 115.97 99.7102 116.065 100.604 116.347" stroke="black" stroke-width="5" stroke-linecap="round" stroke-linejoin="round"/>
<path d="M73.9613 111.525L78.7789 113.415L76.7709 117.566" stroke="black" stroke-width="5" stroke-linecap="round" stroke-linejoin="round"/>
<path d="M127.024 148.653C126.232 146.009 125.114 143.486 123.699 141.147C120.996 136.728 117.319 133.059 112.979 130.45C112.523 129.904 103.734 119.426 101.192 119.307C100.038 119.251 99.4317 119.811 99.4317 119.811C98.8317 120.362 98.7581 121.207 98.7389 121.433C98.5885 123.149 100.046 124.578 101.564 126.25C103.166 128.015 104.679 129.866 106.099 131.794C105.904 131.712 103.804 130.858 102.204 132.075C100.987 133 100.788 134.569 100.659 135.603C100.536 136.596 100.608 137.606 100.872 138.569C100.223 139.55 99.8192 140.687 99.6989 141.874C99.3949 145.113 101.412 148.445 104.764 150.497C105.969 151.19 107.296 151.217 108.156 150.524C108.47 150.268 108.716 149.931 108.872 149.547C109.482 150.88 110.376 152.049 111.484 152.962C114.147 155.146 117.137 155.032 117.987 154.978L127.024 148.653Z" fill="#FF9E9F"/>
<path d="M101.337 119.323C101.177 119.295 100.187 119.125 99.4318 119.811C98.6766 120.496 98.4493 121.843 99.0285 122.989L106.099 131.794C105.64 131.601 104.133 131.04 102.739 131.749C100.881 132.695 99.8829 135.581 100.869 138.569" stroke="black" stroke-width="5" stroke-linecap="round" stroke-linejoin="round"/>
<path d="M109.352 133.978C108.393 133.062 107.293 132.323 106.099 131.794" stroke="black" stroke-width="5" stroke-linecap="round" stroke-linejoin="round"/>
<path d="M106.045 138.383C105.885 138.267 103.985 136.871 102.099 137.711C100.488 138.425 100.019 140.261 99.8669 140.878C98.7773 145.182 102.979 149.11 103.573 149.671C104.12 150.206 104.777 150.603 105.493 150.832C106.072 150.997 106.678 151.037 107.273 150.951" stroke="black" stroke-width="5" stroke-linecap="round" stroke-linejoin="round"/>
<path d="M103.982 143.423C105.316 145.479 106.92 147.327 108.747 148.911C109.178 150.205 109.882 151.379 110.806 152.345C113.566 155.201 117.276 155.02 117.987 154.971" stroke="black" stroke-width="5" stroke-linecap="round" stroke-linejoin="round"/>
<path d="M57.939 157.947C59.6755 160.246 61.2442 162.679 62.6318 165.226C65.8904 171.233 68.128 177.789 69.2446 184.602H88.4446V215.403" stroke="black" stroke-width="5" stroke-linecap="round" stroke-linejoin="round"/>
<path d="M129.656 146.812L107.645 162.202C109.766 166.311 112.269 170.721 115.219 175.306C118.099 179.773 120.979 183.761 123.752 187.289" stroke="black" stroke-width="5" stroke-linecap="round" stroke-linejoin="round"/>
<path d="M272.072 58.3779H200.712V65.7699H272.072V58.3779Z" stroke="black" stroke-width="5" stroke-linecap="round" stroke-linejoin="round"/>
<path d="M218.241 40.6826H205.654L210.382 58.3781" stroke="black" stroke-width="5" stroke-linecap="round" stroke-linejoin="round"/>
<path d="M218.241 40.6826H230.827L226.099 58.3781" stroke="black" stroke-width="5" stroke-linecap="round" stroke-linejoin="round"/>
<path d="M210.704 40.597C209.062 38.7742 205.636 34.5288 204.872 28.1381C204.769 27.2779 203.612 16.7863 208.284 14.6981C211.928 13.0702 217.476 17.2786 219.699 22.0901C221.241 25.4316 220.998 28.6723 220.764 30.2666C221.462 29.5106 222.968 28.0994 225.244 27.5786C227.644 27.0276 231.536 27.3199 232.819 29.9306C233.876 32.0844 232.601 34.6766 232.107 35.6796C230.438 39.0715 227.356 40.2593 226.412 40.602" stroke="black" stroke-width="5" stroke-linecap="round" stroke-linejoin="round"/>
</svg>
